<svg xmlns="http://www.w3.org/2000/svg" width="500" viewBox="0 0 375 375" height="500" version="1.0"><defs><clipPath id="a"><path d="M19 1.875h337V187H19zm0 0"/></clipPath></defs><path d="M347.207 71.39a16.804 16.804 0 018.281 14.477v191.985a16.807 16.807 0 01-9.191 14.98l-151.188 76.793a16.802 16.802 0 01-16.394-.66 16.794 16.794 0 01-8.012-14.32V169.863a16.799 16.799 0 018.64-14.687l151.188-83.992a16.793 16.793 0 0116.676.207zm-142.91 108.356v147.527l117.594-59.73V114.418zm0 0" fill-rule="evenodd"/><g clip-path="url(#a)"><path d="M180.68 3.324a16.763 16.763 0 0113.64 0l151.188 67.192a16.794 16.794 0 019.96 14.605 16.794 16.794 0 01-8.624 15.434l-151.188 83.992a16.803 16.803 0 01-16.312 0L28.152 100.555a16.798 16.798 0 01-8.62-15.434 16.797 16.797 0 019.956-14.605zM73.914 87.54L187.5 150.645l113.586-63.106L187.5 37.06zm0 0" fill-rule="evenodd"/></g><path d="M27.793 71.39a16.804 16.804 0 00-8.281 14.477v191.985a16.807 16.807 0 009.191 14.98l151.188 76.793a16.802 16.802 0 0016.394-.66 16.794 16.794 0 008.012-14.32V169.863a16.799 16.799 0 00-8.64-14.687L44.468 71.184a16.793 16.793 0 00-16.676.207zm142.91 108.356v147.527L53.11 267.543V114.418zm0 0" fill-rule="evenodd"/></svg>